<?xml version="1.0" encoding="utf-8"?>
<!-- Generator: Adobe Illustrator 23.0.6, SVG Export Plug-In . SVG Version: 6.00 Build 0)  -->
<svg version="1.1" id="Calque_1" xmlns="http://www.w3.org/2000/svg" xmlns:xlink="http://www.w3.org/1999/xlink" x="0px" y="0px"
	 viewBox="0 0 512 512" style="enable-background:new 0 0 512 512;" xml:space="preserve">
<style type="text/css">
	.st0{fill:#FFFFFF;}
</style>
<path class="st0" d="M482,26H135c-5.5,0-10,4.5-10,10s4.5,10,10,10h347c5.5,0,10,4.5,10,10v10H170c-5.5,0-10,4.5-10,10
	c0,16.5-13.5,30-30,30H20V56c0-5.5,4.5-10,10-10h15c5.5,0,10-4.5,10-10s-4.5-10-10-10H30C13.5,26,0,39.5,0,56v400
	c0,16.5,13.5,30,30,30h452c16.5,0,30-13.5,30-30V56C512,39.5,498.5,26,482,26z M482,466H30c-5.5,0-10-4.5-10-10V126h110
	c24.1,0,44.3-17.2,49-40h313v370C492,461.5,487.5,466,482,466z"/>
<path class="st0" d="M90,86c5.5,0,10-4.5,10-10c0-5.5-4.5-10-10-10h0c-5.5,0-10,4.5-10,10C80,81.5,84.5,86,90,86z"/>
<path class="st0" d="M130,86c5.5,0,10-4.5,10-10c0-5.5-4.5-10-10-10h0c-5.5,0-10,4.5-10,10C120,81.5,124.5,86,130,86z"/>
<path class="st0" d="M50,66c-5.5,0-10,4.5-10,10c0,5.5,4.5,10,10,10c5.5,0,10-4.5,10-10C60,70.5,55.5,66,50,66L50,66z"/>
<path class="st0" d="M406,336V201c0-24.8-20.2-45-45-45s-45,20.2-45,45c0,5.5,4.5,10,10,10s10-4.5,10-10c0-13.8,11.2-25,25-25
	s25,11.2,25,25v125h-0.8c-4.8-28.3-29.5-50-59.2-50c-24,0-44.7,14.1-54.3,34.5c-4.6-2.8-10-4.5-15.7-4.5s-11.1,1.6-15.7,4.5
	C230.7,290.1,210,276,186,276c-29.7,0-54.4,21.7-59.1,50H126V201c0-13.8,11.2-25,25-25s25,11.2,25,25c0,5.5,4.5,10,10,10
	s10-4.5,10-10c0-24.8-20.2-45-45-45s-45,20.2-45,45v135c0,5.5,4.5,10,10,10h10.9c4.8,28.3,29.5,50,59.1,50c33.1,0,60-26.9,60-60
	c0-5.5,4.5-10,10-10c5.5,0,10,4.5,10,10c0,33.1,26.9,60,60,60c29.7,0,54.4-21.7,59.2-50H396C401.5,346,406,341.5,406,336z M186,376
	c-22.1,0-40-17.9-40-40s17.9-40,40-40s40,17.9,40,40S208.1,376,186,376z M326,376c-22.1,0-40-17.9-40-40s17.9-40,40-40
	s40,17.9,40,40S348.1,376,326,376z"/>
<path class="st0" d="M462,426h-55c-5.5,0-10,4.5-10,10c0,5.5,4.5,10,10,10h55c5.5,0,10-4.5,10-10C472,430.5,467.5,426,462,426z"/>
<path class="st0" d="M362,426L362,426c-5.5,0-10,4.5-10,10c0,5.5,4.5,10,10,10c5.5,0,10-4.5,10-10C372,430.5,367.5,426,362,426z"/>
<path class="st0" d="M90,46c5.5,0,10-4.5,10-10s-4.5-10-10-10h0c-5.5,0-10,4.5-10,10S84.5,46,90,46z"/>
</svg>
