<?xml version="1.0" encoding="utf-8"?>
<!-- Generator: Adobe Illustrator 23.0.6, SVG Export Plug-In . SVG Version: 6.00 Build 0)  -->
<svg version="1.1" id="Capa_1" xmlns="http://www.w3.org/2000/svg" xmlns:xlink="http://www.w3.org/1999/xlink" x="0px" y="0px"
	 viewBox="0 0 512 512" style="enable-background:new 0 0 512 512;" xml:space="preserve">
<style type="text/css">
	.st0{fill:#FFFFFF;}
</style>
<path class="st0" d="M452,166c0-5.5-4.5-10-10-10H70c-5.5,0-10,4.5-10,10v90c0,5.5,4.5,10,10,10h372c5.5,0,10-4.5,10-10V166z
	 M432,246H80v-70h352V246z"/>
<path class="st0" d="M60,406c0,5.5,4.5,10,10,10h156c5.5,0,10-4.5,10-10v-90c0-5.5-4.5-10-10-10H70c-5.5,0-10,4.5-10,10V406z
	 M80,326h136v70H80V326z"/>
<path class="st0" d="M442,306H286c-5.5,0-10,4.5-10,10v90c0,5.5,4.5,10,10,10h156c5.5,0,10-4.5,10-10v-90
	C452,310.5,447.5,306,442,306z M432,396H296v-70h136V396z"/>
<ellipse class="st0" cx="255.9" cy="466" rx="10" ry="10"/>
<path class="st0" d="M482,36H30C13.5,36,0,49.5,0,66v380c0,16.5,13.5,30,30,30h181c5.5,0,10-4.5,10-10s-4.5-10-10-10H30
	c-5.5,0-10-4.5-10-10V116h472v330c0,5.5-4.5,10-10,10H301c-5.5,0-10,4.5-10,10s4.5,10,10,10h181c16.5,0,30-13.5,30-30V66
	C512,49.5,498.5,36,482,36z M20,66c0-5.5,4.5-10,10-10h336v40H20V66z M386,96V56h96c5.5,0,10,4.5,10,10v30H386z"/>
</svg>
