<?xml version="1.0" encoding="utf-8"?>
<!-- Generator: Adobe Illustrator 23.0.6, SVG Export Plug-In . SVG Version: 6.00 Build 0)  -->
<svg version="1.1" id="Capa_1" xmlns="http://www.w3.org/2000/svg" xmlns:xlink="http://www.w3.org/1999/xlink" x="0px" y="0px"
	 viewBox="0 0 512 512" style="enable-background:new 0 0 512 512;" xml:space="preserve">
<style type="text/css">
	.notifications{fill:#B8B8B8;}
</style>
<g>
	<g>
		<path class="notifications" d="M466.8,408.2c-1.7-26.1-13.7-50.2-33.7-67.5l-25.9-178.5C399,100.4,353.6,49.8,293.4,34.6
			C291.9,15.3,275.7,0,256,0s-35.9,15.3-37.4,34.6C158.4,49.8,113,100.4,104.9,162.2L78.9,340.7c-20,17.3-32,41.4-33.7,67.5
			c-8.8,3-15.2,11.4-15.2,21.3c0,12.4,10.1,22.5,22.5,22.5h124.1c9.9,35.1,42.4,60,79.4,60c37,0,69.4-24.9,79.4-60h124.1
			c12.4,0,22.5-10.1,22.5-22.5C482,419.6,475.6,411.3,466.8,408.2z M90.8,350.3c1.9-1.6,2.9-3.9,2.8-6.3l26.1-179.8
			c7.6-57.6,51-104.3,107.8-116.3c3.5-0.7,6-3.8,6-7.3v-3.1c0-12.4,10.1-22.5,22.5-22.5c12.4,0,22.5,10.1,22.5,22.5v3.1
			c0,3.5,2.5,6.6,6,7.3c56.9,12,100.2,58.7,107.8,116.4L418.4,344c-0.1,2.4,0.9,4.7,2.8,6.3c17.6,14.2,28.5,34.6,30.5,56.7H60.3
			C62.4,384.9,73.2,364.6,90.8,350.3z M256,497c-28.8,0-54.3-18.5-63.7-45h127.3C310.3,478.5,284.8,497,256,497z M459.5,437h-130
			c0,0,0,0,0,0h-277c-4.1,0-7.5-3.4-7.5-7.5s3.4-7.5,7.5-7.5h407c4.1,0,7.5,3.4,7.5,7.5S463.6,437,459.5,437z"/>
	</g>
</g>
<g>
	<g>
		<path class="notifications" d="M378.2,337H197.5c-4.1,0-7.5,3.4-7.5,7.5s3.4,7.5,7.5,7.5h180.6c4.1,0,7.5-3.4,7.5-7.5S382.3,337,378.2,337z"
			/>
	</g>
</g>
<g>
	<g>
		<path class="notifications" d="M167.5,337h-33.7c-4.1,0-7.5,3.4-7.5,7.5s3.4,7.5,7.5,7.5h33.7c4.1,0,7.5-3.4,7.5-7.5S171.7,337,167.5,337z"
			/>
	</g>
</g>
</svg>
